<svg width="100" height="124.99999999999999" xmlns="http://www.w3.org/2000/svg">

 <g>
  <title>background</title>
  <rect fill="none" id="canvas_background" height="402" width="582" y="-1" x="-1"/>
 </g>
 <g>
  <title>Layer 1</title>
  <g id="svg_1">
   <path id="svg_2" fill="#ffffff" d="m13,20.999981c-3.3137,0 -6,2.68619 -6,6c0,3.31359 2.6863,6 6,6l74,0c3.3137,0 6,-2.68641 6,-6c0,-3.31381 -2.6863,-6 -6,-6l-74,0zm0,28c-3.3137,0 -6,2.68619 -6,6.00003c0,3.3136 2.6863,6 6,6l74,0c3.3137,0 6,-2.6864 6,-6c0,-3.31384 -2.6863,-6.00003 -6,-6.00003l-74,0zm0,28.00003c-3.3137,0 -6,2.6862 -6,6c0,3.3136 2.6863,6 6,6l74,0c3.3137,0 6,-2.6864 6,-6c0,-3.3138 -2.6863,-6 -6,-6l-74,0z"/>
  </g>
 </g>
</svg>