<svg width="100" height="125" xmlns="http://www.w3.org/2000/svg">

 <g>
  <title>background</title>
  <rect fill="none" id="canvas_background" height="402" width="582" y="-1" x="-1"/>
 </g>
 <g>
  <title>Layer 1</title>
  <g id="svg_1">
   <path fill="#ffffff" id="svg_2" d="m7.25,7.958l0,85.083l85.5,0l0,-85.083l-85.5,0zm83,2.5l0,7.626l-80.5,0l0,-7.626l80.5,0zm0,10.126l0,59.625l-80.5,0l0,-59.625l80.5,0zm-80.5,69.957l0,-7.832l80.5,0l0,7.832l-80.5,0z"/>
   <rect fill="#ffffff" id="svg_3" height="2.5" width="9.5" y="12.875" x="12.75"/>
   <rect fill="#ffffff" id="svg_4" height="2.5" width="2.333" y="12.875" x="76.417"/>
   <rect fill="#ffffff" id="svg_5" height="2.5" width="2.333" y="12.875" x="80.417"/>
   <rect fill="#ffffff" id="svg_6" height="2.5" width="2.333" y="12.875" x="84.417"/>
   <rect fill="#ffffff" id="svg_7" height="2.5" width="26.5" y="85.209" x="36.894"/>
   <polygon fill="#ffffff" id="svg_8" points="42.912,59.081 33.561,50.374 42.912,41.667 41.208,39.837 29.893,50.374 41.208,60.911  "/>
   <polygon fill="#ffffff" id="svg_9" points="59.08,39.837 57.377,41.667 66.727,50.374 57.377,59.081 59.08,60.911 70.395,50.374  "/>
   <rect fill="#ffffff" id="svg_10" height="2.5" width="21.218" transform="matrix(0.381,-0.9246,0.9246,0.381,-15.0175,77.195) " y="48.563" x="39.535"/>
   <rect fill="#ffffff" id="svg_11" height="2.5" width="15.75" y="23.917" x="12.75"/>
   <rect fill="#ffffff" id="svg_12" height="2.5" width="8.878" y="23.917" x="49.536"/>
   <rect fill="#ffffff" id="svg_13" height="2.5" width="26.003" y="23.917" x="60.747"/>
   <rect fill="#ffffff" id="svg_14" height="2.5" width="43.792" y="28.917" x="12.75"/>
   <rect fill="#ffffff" id="svg_15" height="2.5" width="5.938" y="28.917" x="58.229"/>
   <rect fill="#ffffff" id="svg_16" height="2.5" width="20.25" y="28.917" x="66.5"/>
   <rect fill="#ffffff" id="svg_17" height="2.5" width="9.5" y="33.917" x="12.75"/>
   <rect fill="#ffffff" id="svg_18" height="2.5" width="52.48" y="33.917" x="23.937"/>
   <rect fill="#ffffff" id="svg_19" height="2.5" width="8" y="33.917" x="78.75"/>
   <rect fill="#ffffff" id="svg_20" height="2.5" width="21.053" y="63.916" x="12.75"/>
   <rect fill="#ffffff" id="svg_21" height="2.5" width="12.88" y="63.916" x="35.489"/>
   <rect fill="#ffffff" id="svg_22" height="2.5" width="12.25" y="63.916" x="74.5"/>
   <rect fill="#ffffff" id="svg_23" height="2.5" width="18.464" y="63.916" x="50.703"/>
   <rect fill="#ffffff" id="svg_24" height="2.5" width="9.875" y="68.916" x="46.667"/>
   <rect fill="#ffffff" id="svg_25" height="2.5" width="11.333" y="68.916" x="33"/>
   <rect fill="#ffffff" id="svg_26" height="2.5" width="16.583" y="68.916" x="12.75"/>
   <rect fill="#ffffff" id="svg_27" height="2.5" width="5.938" y="68.916" x="58.229"/>
   <rect fill="#ffffff" id="svg_28" height="2.5" width="20.25" y="68.916" x="66.5"/>
   <rect fill="#ffffff" id="svg_29" height="2.5" width="25.667" y="73.916" x="40.833"/>
   <rect fill="#ffffff" id="svg_30" height="2.5" width="25.25" y="73.916" x="12.75"/>
   <rect fill="#ffffff" id="svg_31" height="2.5" width="5.938" y="73.916" x="68.187"/>
   <rect fill="#ffffff" id="svg_32" height="2.5" width="10.292" y="73.916" x="76.458"/>
   <rect fill="#ffffff" id="svg_33" height="2.5" width="15.958" y="23.917" x="30.333"/>
  </g>
 </g>
</svg>