<svg width="100" height="125" xmlns="http://www.w3.org/2000/svg">

 <g>
  <title>background</title>
  <rect fill="none" id="canvas_background" height="402" width="582" y="-1" x="-1"/>
 </g>
 <g>
  <title>Layer 1</title>
  <g id="svg_1">
   <path fill="#ffffff" id="svg_2" d="m90.072,28.092714l-8.054,0l0,-8.721c0,-0.85 -0.69,-1.539 -1.54,-1.539l-9.126,0l0,-7.637c0,-0.85 -0.69,-1.539 -1.54,-1.539l-59.885,0c-0.849,0 -1.539,0.689 -1.539,1.539l0,77.498c0,0.85 0.69,1.539 1.539,1.539l9.141,0l0,7.637c0,0.85 0.689,1.539 1.54,1.539l8.043,0l0,8.709c0,0.85 0.688,1.539 1.539,1.539l59.883,0c0.851,0 1.54,-0.689 1.54,-1.539l0,-77.484c-0.001,-0.852 -0.69,-1.541 -1.541,-1.541zm-1.539,77.484l-56.804,0l0,-7.168l48.749,0c0.85,0 1.54,-0.689 1.54,-1.539l0,-65.697l6.515,0l0,74.404zm-66.387,-16.344l6.504,0l1.539,0l1.54,0l21.136,0c0.393,0 0.786,-0.16 1.082,-0.455l16.947,-16.949c0.296,-0.295 0.458,-0.689 0.458,-1.084l0,-39.572l0,-1.539l0,-1.541l0,-7.18l7.587,0l0,7.18l0,1.541l0,1.539l0,64.158l-47.21,0l-1.54,0l-1.539,0l-6.504,0l0,-6.098zm-10.679,-77.496l56.806,0l0,6.096l0,1.539l0,1.541l0,7.18l0,1.541l0,1.539l0,38.033l-15.408,0c-0.851,0 -1.54,0.691 -1.54,1.539l0,15.408l-19.596,0l-1.54,0l-1.539,0l-6.504,0l-1.539,0l-1.54,0l-7.601,0l0,-74.416l0.001,0zm42.937,72.236l0,-11.687l11.688,0l-11.688,11.687z"/>
   <polygon fill="#ffffff" id="svg_3" points="32.073001861572266,24.853723227977753 34.25299835205078,24.853723227977753 61.301998138427734,24.853723227977753 61.301998138427734,21.773721396923065 37.332000732421875,21.773721396923065 35.152000427246094,21.773721396923065 32.972999572753906,21.773721396923065 18.437999725341797,21.773721396923065 18.437999725341797,24.853723227977753 29.893999099731445,24.853723227977753 "/>
   <polygon fill="#ffffff" id="svg_4" points="20.60700035095215,36.48072022199631 22.625999450683594,36.48072022199631 38.12099838256836,36.48072022199631 40.28799819946289,36.48072022199631 42.46900177001953,36.48072022199631 61.301998138427734,36.48072022199631 61.301998138427734,33.400722205638885 45.54800033569336,33.400722205638885 43.367000579833984,33.400722205638885 41.20000076293945,33.400722205638885 25.70599937438965,33.400722205638885 23.525999069213867,33.400722205638885 21.34600067138672,33.400722205638885 18.437999725341797,33.400722205638885 18.437999725341797,36.48072022199631 19.066999435424805,36.48072022199631 "/>
   <polygon fill="#ffffff" id="svg_5" points="20.60700035095215,48.10772293806076 22.145999908447266,48.10772293806076 28.649999618530273,48.10772293806076 30.18899917602539,48.10772293806076 31.729000091552734,48.10772293806076 61.301998138427734,48.10772293806076 61.301998138427734,45.02772110700607 33.92100143432617,45.02772110700607 31.740999221801758,45.02772110700607 29.562000274658203,45.02772110700607 22.145999908447266,45.02772110700607 20.60700035095215,45.02772110700607 19.066999435424805,45.02772110700607 18.437999725341797,45.02772110700607 18.437999725341797,48.10772293806076 19.066999435424805,48.10772293806076 "/>
   <polygon fill="#ffffff" id="svg_6" points="20.60700035095215,59.73472183942795 22.145999908447266,59.73472183942795 28.649999618530273,59.73472183942795 30.18899917602539,59.73472183942795 31.729000091552734,59.73472183942795 61.301998138427734,59.73472183942795 61.301998138427734,56.656722724437714 31.729000091552734,56.656722724437714 30.18899917602539,56.656722724437714 28.649999618530273,56.656722724437714 22.145999908447266,56.656722724437714 20.60700035095215,56.656722724437714 19.066999435424805,56.656722724437714 18.437999725341797,56.656722724437714 18.437999725341797,59.73472183942795 19.066999435424805,59.73472183942795 "/>
   <polygon fill="#ffffff" id="svg_7" points="20.60700035095215,71.3617245554924 22.145999908447266,71.3617245554924 28.649999618530273,71.3617245554924 30.18899917602539,71.3617245554924 31.729000091552734,71.3617245554924 45.06800079345703,71.3617245554924 45.06800079345703,68.28172272443771 31.729000091552734,68.28172272443771 30.18899917602539,68.28172272443771 28.649999618530273,68.28172272443771 22.145999908447266,68.28172272443771 20.60700035095215,68.28172272443771 19.066999435424805,68.28172272443771 18.437999725341797,68.28172272443771 18.437999725341797,71.3617245554924 19.066999435424805,71.3617245554924 "/>
  </g>
 </g>
</svg>