<svg width="100" height="100" xmlns="http://www.w3.org/2000/svg">

 <g>
  <title>background</title>
  <rect fill="none" id="canvas_background" height="102" width="102" y="-1" x="-1"/>
 </g>
 <g>
  <title>Layer 1</title>
  <g stroke="null" id="svg_1">
   <path stroke="null" fill="#ffffff" id="svg_2" d="m44.776685,58.609817l-17.974354,-10.717945c-0.614508,-0.472851 -1.53627,-0.472851 -2.150777,0l-18.127981,10.717945c-0.614508,0.315234 -1.075389,1.103318 -1.075389,1.891402l0,20.332572c0,0.788084 0.460881,1.418552 1.075389,1.891402l18.127981,10.875562c0,0 0,0 0,0c0.153627,0.157617 0.307254,0.157617 0.460881,0.157617c0.153627,0 0.460881,0.157617 0.614508,0.157617c0.307254,0 0.768135,-0.157617 1.075389,-0.315234c0,0 0,0 0,0l17.974354,-10.875562c0.614508,-0.315234 1.075389,-1.103318 1.075389,-1.891402l0,-20.332572c0,-0.788084 -0.460881,-1.418552 -1.075389,-1.891402zm-19.049742,-6.304673l13.672799,8.196075l-13.826426,7.880842l-13.672799,-7.880842l13.826426,-8.196075zm-15.977203,11.978879l13.826426,7.880842l0,15.44645l-13.826426,-8.353692c0,0.157617 0,-11.190795 0,-14.973599zm18.127981,23.484908l0,-15.604067l13.672799,-7.723225l0,15.131216l-13.672799,8.196075z"/>
   <path stroke="null" fill="#ffffff" id="svg_3" d="m93.476429,58.294583l-17.974354,-10.717945c-0.614508,-0.472851 -1.53627,-0.472851 -2.150777,0l-18.127981,10.717945c-0.153627,0 -0.153627,0.157617 -0.307254,0.157617c-0.460881,0.315234 -0.768135,0.945701 -0.768135,1.733785l0,20.332572c0,0.788084 0.460881,1.418552 1.075389,1.891402l18.127981,10.875562c0.307254,0.157617 0.768135,0.315234 1.075389,0.315234c0.307254,0 0.768135,-0.157617 1.075389,-0.315234l17.974354,-10.875562c0.614508,-0.315234 1.075389,-1.103318 1.075389,-1.891402l0,-20.332572c0,-0.788084 -0.460881,-1.418552 -1.075389,-1.891402zm-19.049742,-6.304673l13.365545,8.038459l-13.519172,7.723225l-13.519172,-7.723225l13.672799,-8.038459zm-15.977203,11.821263l13.826426,7.880842l0,15.761683l-13.826426,-8.353692l0,-15.288833zm18.127981,23.642525l0,-15.9193l13.672799,-7.723225l0,15.288833l-13.672799,8.353692z"/>
   <path stroke="null" fill="#ffffff" id="svg_4" d="m70.125132,39.380563l0,-20.332572c0,-0.788084 -0.460881,-1.418552 -1.075389,-1.891402l-17.974354,-10.717945c-0.614508,-0.472851 -1.53627,-0.472851 -2.150777,0l-18.127981,10.717945c-0.614508,0.315234 -1.075389,1.103318 -1.075389,1.891402l0,20.332572c0,0.788084 0.460881,1.418552 1.075389,1.891402l18.127981,10.875562c0.307254,0.157617 0.768135,0.315234 1.075389,0.315234s0.768135,-0.157617 1.075389,-0.315234l17.974354,-10.875562c0.614508,-0.315234 1.075389,-1.103318 1.075389,-1.891402zm-20.125131,-28.528647l13.519172,8.038459l-13.826426,7.723225l-13.365545,-7.723225l13.672799,-8.038459zm-15.977203,11.978879l13.826426,7.880842l0,15.604067l-13.826426,-8.196075l0,-15.288833zm18.127981,23.484908l0,-15.761683l13.672799,-7.723225l0,15.288833l-13.672799,8.196075z"/>
  </g>
 </g>
</svg>