<svg width="64" height="80" xmlns="http://www.w3.org/2000/svg">
 <style type="text/css">.st0{display:none;}
	.st1{display:inline;}
	.st2{fill:none;stroke:#B3B3B3;stroke-width:0.1;stroke-miterlimit:10;}</style>

 <g>
  <title>background</title>
  <rect fill="none" id="canvas_background" height="402" width="582" y="-1" x="-1"/>
 </g>
 <g>
  <title>Layer 1</title>
  <g id="svg_1" class="st0">
   <g id="svg_2" class="st1">
    <rect fill="#00ff7f" id="svg_3" height="60" width="60" class="st2" y="2" x="2"/>
    <line fill="#00ff7f" id="svg_4" y2="62" x2="32" y1="2" x1="32" class="st2"/>
    <line fill="#00ff7f" id="svg_5" y2="32" x2="2" y1="32" x1="62" class="st2"/>
    <line fill="#00ff7f" id="svg_6" y2="62" x2="62" y1="2" x1="2" class="st2"/>
    <rect fill="#00ff7f" id="svg_7" height="44" width="44" class="st2" y="10" x="10"/>
    <line fill="#00ff7f" id="svg_8" y2="62" x2="2" y1="2" x1="62" class="st2"/>
    <line fill="#00ff7f" id="svg_9" y2="2" x2="32" y1="32" x1="2" class="st2"/>
    <line fill="#00ff7f" id="svg_10" y2="32" x2="62" y1="2" x1="32" class="st2"/>
    <line fill="#00ff7f" id="svg_11" y2="62" x2="32" y1="32" x1="62" class="st2"/>
    <line fill="#00ff7f" id="svg_12" y2="32" x2="2" y1="62" x1="32" class="st2"/>
    <circle fill="#00ff7f" id="svg_13" r="21" cy="32" cx="32" class="st2"/>
   </g>
  </g>
  <path fill="#ffffff" id="svg_14" d="m25,28l0,1c0,1.1 -0.9,2 -2,2l0,2c1.1,0 2,0.9 2,2l0,1c0,1.7 1.3,3 3,3l2,0l0,-2l-2,0c-0.6,0 -1,-0.4 -1,-1l0,-1.8c0,-0.9 -0.4,-1.7 -1,-2.2c0.6,-0.6 1,-1.4 1,-2.2l0,-1.8c0,-0.6 0.4,-1 1,-1l2,0l0,-2l-2,0c-1.7,0 -3,1.3 -3,3z"/>
  <path fill="#ffffff" id="svg_15" d="m39,29l0,-1c0,-1.7 -1.3,-3 -3,-3l-2,0l0,2l2,0c0.6,0 1,0.4 1,1l0,1.8c0,0.8 0.4,1.6 1,2.2c-0.6,0.5 -1,1.3 -1,2.2l0,1.8c0,0.6 -0.4,1 -1,1l-2,0l0,2l2,0c1.7,0 3,-1.3 3,-3l0,-1c0,-1.1 0.9,-2 2,-2l0,-2c-1.1,0 -2,-0.9 -2,-2z"/>
  <path fill="#ffffff" id="svg_16" d="m41.787234,19.212766l-20,0c-1.7,0 -3,1.3 -3,3l0,20c0,1.7 1.3,3 3,3l20,0c1.7,0 3,-1.3 3,-3l0,-20c0,-1.7 -1.3,-3 -3,-3zm1,23c0,0.6 -0.4,1 -1,1l-20,0c-0.6,0 -1,-0.4 -1,-1l0,-20c0,-0.6 0.4,-1 1,-1l20,0c0.6,0 1,0.4 1,1l0,20z"/>
  <path fill="#ffffff" id="svg_17" d="m58.3,27c0.3,1 1,1 1.7,1c1.1,0 2,-0.9 2,-2s-0.9,-2 -2,-2c-0.7,0 -1.4,0 -1.7,1l-7.3,0l0,-4l4,0l0,-5l3.3,0c0.3,1 1,1 1.7,1c1.1,0 2,-0.9 2,-2s-0.9,-2 -2,-2c-0.7,0 -1.4,0 -1.7,1l-5.3,0l0,5l-2,0l0,-1c0,-2.8 -2.2,-5 -5,-5l-1,0l0,-2l5,0l0,-5.3c0.6,-0.3 1,-1 1,-1.7c0,-1.1 -0.9,-2 -2,-2s-2,0.9 -2,2c0,0.7 0.4,1.4 1,1.7l0,3.3l-5,0l0,4l-4,0l0,-7.3c0.6,-0.3 1,-1 1,-1.7c0,-1.1 -0.9,-2 -2,-2s-2,0.9 -2,2c0,0.7 0.4,1.4 1,1.7l0,7.3l-4,0l0,-7.3c0.6,-0.3 1,-1 1,-1.7c0,-1.1 -0.9,-2 -2,-2s-2,0.9 -2,2c0,0.7 0.4,1.4 1,1.7l0,7.3l-4,0l0,-7.3c0.6,-0.3 1,-1 1,-1.7c0,-1.1 -0.9,-2 -2,-2s-2,0.9 -2,2c0,0.7 0.4,1.4 1,1.7l0,7.3l-4,0l0,-4l-5,0l0,-3.3c0.6,-0.3 1,-1 1,-1.7c0,-1.1 -0.9,-2 -2,-2s-2,0.9 -2,2c0,0.7 0.4,1.4 1,1.7l0,5.3l5,0l0,2l-1,0c-2.8,0 -5,2.2 -5,5l0,1l-2,0l0,-5l-5.3,0c-0.3,-1 -1,-1 -1.7,-1c-1.1,0 -2,0.9 -2,2s0.9,2 2,2c0.7,0 1.4,0 1.7,-1l3.3,0l0,5l4,0l0,4l-7.3,0c-0.3,-1 -1,-1 -1.7,-1c-1.1,0 -2,0.9 -2,2s0.9,2 2,2c0.7,0 1.4,0 1.7,-1l7.3,0l0,4l-7.3,0c-0.3,-1 -1,-1 -1.7,-1c-1.1,0 -2,0.9 -2,2s0.9,2 2,2c0.7,0 1.4,0 1.7,-1l7.3,0l0,4l-7.3,0c-0.3,-1 -1,-1 -1.7,-1c-1.1,0 -2,0.9 -2,2s0.9,2 2,2c0.7,0 1.4,0 1.7,-1l7.3,0l0,4l-4,0l0,5l-3.3,0c-0.3,-1 -1,-1 -1.7,-1c-1.1,0 -2,0.9 -2,2s0.9,2 2,2c0.7,0 1.4,0 1.7,-1l5.3,0l0,-5l2,0l0,1c0,2.8 2.2,5 5,5l1,0l0,2l-5,0l0,5.3c-1,0.3 -1,1 -1,1.7c0,1.1 0.9,2 2,2s2,-0.9 2,-2c0,-0.7 0,-1.4 -1,-1.7l0,-3.3l5,0l0,-4l4,0l0,7.3c-1,0.3 -1,1 -1,1.7c0,1.1 0.9,2 2,2s2,-0.9 2,-2c0,-0.7 0,-1.4 -1,-1.7l0,-7.3l4,0l0,7.3c-1,0.3 -1,1 -1,1.7c0,1.1 0.9,2 2,2s2,-0.9 2,-2c0,-0.7 0,-1.4 -1,-1.7l0,-7.3l4,0l0,7.3c-1,0.3 -1,1 -1,1.7c0,1.1 0.9,2 2,2s2,-0.9 2,-2c0,-0.7 0,-1.4 -1,-1.7l0,-7.3l4,0l0,4l5,0l0,3.3c-1,0.3 -1,1 -1,1.7c0,1.1 0.9,2 2,2s2,-0.9 2,-2c0,-0.7 0,-1.4 -1,-1.7l0,-5.3l-5,0l0,-2l1,0c2.8,0 5,-2.2 5,-5l0,-1l2,0l0,5l5.3,0c0.3,1 1,1 1.7,1c1.1,0 2,-0.9 2,-2s-0.9,-2 -2,-2c-0.7,0 -1.4,0 -1.7,1l-3.3,0l0,-5l-4,0l0,-4l7.3,0c0.3,1 1,1 1.7,1c1.1,0 2,-0.9 2,-2s-0.9,-2 -2,-2c-0.7,0 -1.4,0 -1.7,1l-7.3,0l0,-4l7.3,0c0.3,1 1,1 1.7,1c1.1,0 2,-0.9 2,-2s-0.9,-2 -2,-2c-0.7,0 -1.4,0 -1.7,1l-7.3,0l0,-4l7.3,0zm-9.3,19c0,1.7 -1.3,3 -3,3l-28,0c-1.7,0 -3,-1.3 -3,-3l0,-28c0,-1.7 1.3,-3 3,-3l28,0c1.7,0 3,1.3 3,3l0,28z"/>
  <text id="svg_19" font-family="'Helvetica Neue', Helvetica, Arial-Unicode, Arial, Sans-serif" font-weight="bold" font-size="5px" fill="#000000" y="84" x="0">from the Noun Project</text>
 </g>
</svg>