<svg width="98" height="122.49999999999999" xmlns="http://www.w3.org/2000/svg">

 <g>
  <title>background</title>
  <rect fill="none" id="canvas_background" height="300" width="300" y="-1" x="-1"/>
 </g>
 <g>
  <title>Layer 1</title>
  <g id="svg_1">
   <polygon fill="#ffffff" id="svg_2" points="47.87189865112305,69.02007302641869 47.87189865112305,77.29006966948509 48.87189865112305,76.64006814360619 49.87189865112305,77.29006966948509 49.87189865112305,69.02007302641869 48.87189865112305,69.67007455229759 "/>
   <polygon fill="#ffffff" id="svg_3" points="38.041900634765625,87.14497384428978 37.971900939941406,87.10017403960228 38.041900634765625,87.14967355132103 38.041900634765625,97.22016915678978 47.87189865112305,103.63007363677025 47.87189865112305,93.56007394194603 38.041900634765625,87.13007363677025 "/>
   <polygon fill="#ffffff" id="svg_4" points="48.87189865112305,79.03017434477806 39.0718994140625,85.42007455229759 48.87189865112305,91.83007058501244 58.77190017700195,85.47016915678978 "/>
   <polygon fill="#ffffff" id="svg_5" points="49.87189865112305,103.63007363677025 59.721900939941406,97.22016915678978 59.721900939941406,87.25006875395775 49.87189865112305,93.57006844878197 "/>
   <polygon fill="#ffffff" id="svg_6" points="15.571900367736816,40.09017190337181 5.7418999671936035,33.66017159819603 5.7418999671936035,43.740070432424545 15.571900367736816,50.16017159819603 "/>
   <polygon fill="#ffffff" id="svg_7" points="26.421899795532227,31.96007165312767 16.5718994140625,25.560070127248764 6.761899948120117,31.950071424245834 16.5718994140625,38.36007317900658 "/>
   <polygon fill="#ffffff" id="svg_8" points="17.5718994140625,50.16017159819603 27.421899795532227,43.740070432424545 27.421899795532227,33.690071195364 17.5718994140625,40.09017190337181 "/>
   <polygon fill="#ffffff" id="svg_9" points="70.56189727783203,78.04006966948509 80.3927001953125,84.4577713906765 80.3927001953125,74.39247140288353 70.56189727783203,67.98707589507103 "/>
   <polygon fill="#ffffff" id="svg_10" points="82.3927001953125,84.45796975493431 92.24189758300781,78.04006966948509 92.24189758300781,68.0307694375515 82.3927001953125,74.39707192778587 "/>
   <polygon fill="#ffffff" id="svg_11" points="81.39189910888672,59.86006936430931 71.56770324707031,66.25537118315697 81.39320373535156,72.6569672524929 91.26850128173828,66.27767190337181 "/>
   <polygon fill="#ffffff" id="svg_12" points="48.87189865112305,42.030170530080795 39.004398345947266,48.453571408987045 48.87459945678711,54.82596978545189 58.83140182495117,48.5014725625515 "/>
   <polygon fill="#ffffff" id="svg_13" points="49.87189865112305,66.62847146391869 59.721900939941406,60.21017083525658 59.721900939941406,50.30697259306908 49.87189865112305,56.57717141509056 "/>
   <polygon fill="#ffffff" id="svg_14" points="47.87189865112305,56.56537255644798 38.041900634765625,50.21316918730736 38.041900634765625,60.21017083525658 47.87189865112305,66.62727364897728 "/>
   <polygon fill="#ffffff" id="svg_15" points="49.87409973144531,32.48797234892845 59.721900939941406,26.080070585012436 59.721900939941406,16.348270505666733 49.87409973144531,22.459470838308334 "/>
   <polygon fill="#ffffff" id="svg_16" points="58.967899322509766,14.459470838308334 48.87189865112305,7.890071481466293 39.0619010925293,14.285170644521713 48.87459945678711,20.69367226958275 "/>
   <polygon fill="#ffffff" id="svg_17" points="47.87409973144531,22.427671521902084 38.041900634765625,16.007770627737045 38.041900634765625,26.080070585012436 47.87409973144531,32.489669889211655 "/>
   <polygon fill="#ffffff" id="svg_18" points="16.5718994140625,59.86006936430931 6.725100040435791,66.27007302641869 16.5762996673584,72.6569672524929 26.426799774169922,66.26357278227806 "/>
   <polygon fill="#ffffff" id="svg_19" points="5.7418999671936035,78.04006966948509 15.575799942016602,84.45977029204369 15.575799942016602,74.39546975493431 5.7418999671936035,68.01676949858665 "/>
   <polygon fill="#ffffff" id="svg_20" points="17.5757999420166,84.45587167143822 27.421899795532227,78.04006966948509 27.421899795532227,68.002571195364 17.5757999420166,74.3942719399929 "/>
   <polygon fill="#ffffff" id="svg_21" points="15.571900367736816,52.16017159819603 15.571900367736816,58.12007150053978 16.5718994140625,57.47016915678978 17.5718994140625,58.12007150053978 17.5718994140625,52.16017159819603 16.5718994140625,52.810070127248764 "/>
   <polygon fill="#ffffff" id="svg_22" points="80.4281005859375,58.12007150053978 81.4281005859375,57.47016915678978 82.4281005859375,58.12007150053978 82.4281005859375,52.16017159819603 81.4281005859375,52.810070127248764 80.4281005859375,52.16017159819603 "/>
   <polygon fill="#ffffff" id="svg_23" points="68.58190155029297,30.23007020354271 61.721900939941406,26.16017159819603 61.721900939941406,27.16017159819603 60.66189956665039,27.850170224905014 68.58190155029297,32.55007180571556 "/>
   <path fill="#ffffff" id="svg_24" d="m28.5419,30.950073l0.88,0.57c0,0.1007 0,1.3407 0,1.24l7.74,-4.87l-1.12,-0.73l0,-0.92c-0.1007,0.0633 -8.0023,5.0255 -7.5,4.71z"/>
   <path fill="#ffffff" id="svg_25" d="m70.3666,80.465873c-0.0067,0.0043 -0.0083,0.0053 0,0l0,0z"/>
   <path fill="#ffffff" id="svg_26" d="m70.5019,80.380073l-1.85,-1.2l-8.06,5.09l0.04,0.02l1.09,0.71l0,0.92l0,0.03c6.6662,-4.2291 8.3627,-5.3053 8.705,-5.5225c-0.0128,0.0082 -0.0253,0.0161 -0.0361,0.0229c0.0221,-0.0139 0.057,-0.0361 0.1111,-0.0704l0,0c-0.0009,0.0005 -0.003,0.0018 -0.0044,0.0027c0.0011,-0.0007 0.0036,-0.0022 0.0044,-0.0027z"/>
   <path fill="#ffffff" id="svg_27" d="m70.5019,80.380073l0,0c0.0026,-0.0016 0.0031,-0.002 0,0z"/>
   <path fill="#ffffff" id="svg_28" d="m70.3908,80.450573c-0.0115,0.0073 -0.0194,0.0123 -0.0242,0.0153c0.0053,-0.0034 0.0132,-0.0083 0.0242,-0.0153z"/>
   <polygon fill="#ffffff" id="svg_29" points="29.421899795532227,79.12007150053978 28.12190055847168,79.97016915678978 35.541900634765625,85.33007058501244 36.041900634765625,85.70007333159447 36.041900634765625,85.01007089018822 37.25189971923828,84.22016915678978 37.33190155029297,84.16017159819603 29.421899795532227,78.43006905913353 "/>
   <rect fill="#ffffff" id="svg_30" height="1.9999" width="1.9999" transform="matrix(0.5137,0.858,-0.858,0.5137,28.1745,-16.3195) " y="19.16687" x="33.283443"/>
   <rect fill="#ffffff" id="svg_31" height="1.9999" width="1.9999" transform="matrix(0.5137,0.858,-0.858,0.5137,28.2684,-12.3757) " y="21.22157" x="29.851243"/>
   <rect fill="#ffffff" id="svg_32" height="2.0003" width="1.9999" transform="matrix(0.5137,0.858,-0.858,0.5137,28.0806,-20.2631) " y="17.11197" x="36.715243"/>
   <rect fill="#ffffff" id="svg_33" height="1.9999" width="1.9999" transform="matrix(0.858,0.5137,-0.5137,0.858,18.335,-32.9253) " y="21.494243" x="71.18207"/>
   <rect fill="#ffffff" id="svg_34" height="1.9999" width="1.9999" transform="matrix(0.858,0.5137,-0.5137,0.858,19.878,-34.3966) " y="23.548943" x="74.61427"/>
   <rect fill="#ffffff" id="svg_35" height="1.9999" width="2.0003" transform="matrix(0.858,0.5136,-0.5136,0.858,16.7863,-31.4481) " y="19.440139" x="67.749651"/>
   <path fill="#ffffff" id="svg_36" d="m69.4319,45.380073l-0.85,-0.56l0,-1.25c-0.1805,0.0903 -7.8231,3.9115 -7.72,3.86l0.86,0.56c0,0.1007 0,1.3507 0,1.25l7.71,-3.86z"/>
   <path fill="#ffffff" id="svg_37" d="m29.4219,44.820073l-0.89,0.58l7.51,3.83c0,-0.1007 0,-1.3307 0,-1.23l0.87,-0.57c-0.1005,-0.0513 -7.9935,-4.0768 -7.49,-3.82l0,1.21z"/>
   <polygon fill="#ffffff" id="svg_38" points="80.40809631347656,40.09017190337181 70.5781021118164,33.66017159819603 70.5781021118164,43.740070432424545 80.40809631347656,50.16017159819603 "/>
   <polygon fill="#ffffff" id="svg_39" points="81.40809631347656,38.36007317900658 91.25810241699219,31.96007165312767 81.40809631347656,25.560070127248764 71.59809875488281,31.950071424245834 "/>
   <polygon fill="#ffffff" id="svg_40" points="82.40809631347656,40.09017190337181 82.40809631347656,50.16017159819603 92.25810241699219,43.740070432424545 92.25810241699219,33.690071195364 "/>
  </g>
 </g>
</svg>