<svg width="48" height="60" xmlns="http://www.w3.org/2000/svg">

 <g>
  <title>background</title>
  <rect fill="none" id="canvas_background" height="402" width="582" y="-1" x="-1"/>
 </g>
 <g>
  <title>Layer 1</title>
  <path fill="#ffffff" id="svg_1" d="m11,23c-0.2,0 -0.3,0 -0.5,-0.1l-9,-5c-0.3,-0.2 -0.5,-0.5 -0.5,-0.9l0,-10c0,-0.4 0.2,-0.7 0.5,-0.9c0.3,-0.2 0.7,-0.2 1,0l9,5c0.3,0.2 0.5,0.5 0.5,0.9l0,10c0,0.4 -0.2,0.7 -0.5,0.9c-0.1,0.1 -0.3,0.1 -0.5,0.1zm-8,-6.6l7,3.9l0,-7.7l-7,-3.9l0,7.7z"/>
  <path fill="#ffffff" id="svg_2" d="m11,23c-0.2,0 -0.4,0 -0.5,-0.1c-0.3,-0.2 -0.5,-0.5 -0.5,-0.9l0,-10c0,-0.4 0.2,-0.7 0.5,-0.9l9,-5c0.3,-0.2 0.7,-0.2 1,0c0.3,0.2 0.5,0.5 0.5,0.9l0,10c0,0.4 -0.2,0.7 -0.5,0.9l-9,5c-0.2,0.1 -0.3,0.1 -0.5,0.1zm1,-10.4l0,7.7l7,-3.9l0,-7.7l-7,3.9z"/>
  <path fill="#ffffff" id="svg_3" d="m11,13c-0.2,0 -0.3,0 -0.5,-0.1l-9,-5c-0.3,-0.2 -0.5,-0.5 -0.5,-0.9s0.2,-0.7 0.5,-0.9l9,-5c0.3,-0.2 0.7,-0.2 1,0l9,5c0.3,0.2 0.5,0.5 0.5,0.9s-0.2,0.7 -0.5,0.9l-9,5c-0.2,0.1 -0.3,0.1 -0.5,0.1zm-6.9,-6l6.9,3.9l6.9,-3.9l-6.9,-3.9l-6.9,3.9z"/>
  <path fill="#ffffff" id="svg_4" d="m37,23c-0.2,0 -0.3,0 -0.5,-0.1l-9,-5c-0.3,-0.2 -0.5,-0.5 -0.5,-0.9l0,-10c0,-0.4 0.2,-0.7 0.5,-0.9c0.3,-0.2 0.7,-0.2 1,0l9,5c0.3,0.2 0.5,0.5 0.5,0.9l0,10c0,0.4 -0.2,0.7 -0.5,0.9c-0.1,0.1 -0.3,0.1 -0.5,0.1zm-8,-6.6l7,3.9l0,-7.7l-7,-3.9l0,7.7z"/>
  <path fill="#ffffff" id="svg_5" d="m37,23c-0.2,0 -0.4,0 -0.5,-0.1c-0.3,-0.2 -0.5,-0.5 -0.5,-0.9l0,-10c0,-0.4 0.2,-0.7 0.5,-0.9l9,-5c0.3,-0.2 0.7,-0.2 1,0c0.3,0.2 0.5,0.5 0.5,0.9l0,10c0,0.4 -0.2,0.7 -0.5,0.9l-9,5c-0.2,0.1 -0.3,0.1 -0.5,0.1zm1,-10.4l0,7.7l7,-3.9l0,-7.7l-7,3.9z"/>
  <path fill="#ffffff" id="svg_6" d="m37,13c-0.2,0 -0.3,0 -0.5,-0.1l-9,-5c-0.3,-0.2 -0.5,-0.5 -0.5,-0.9s0.2,-0.7 0.5,-0.9l9,-5c0.3,-0.2 0.7,-0.2 1,0l9,5c0.3,0.2 0.5,0.5 0.5,0.9s-0.2,0.7 -0.5,0.9l-9,5c-0.2,0.1 -0.3,0.1 -0.5,0.1zm-6.9,-6l6.9,3.9l6.9,-3.9l-6.9,-3.9l-6.9,3.9z"/>
  <path fill="#ffffff" id="svg_7" d="m24,47.61858c-0.2,0 -0.3,0 -0.5,-0.1l-9,-5c-0.3,-0.2 -0.5,-0.5 -0.5,-0.9l0,-10c0,-0.4 0.2,-0.7 0.5,-0.9c0.3,-0.2 0.7,-0.2 1,0l9,5c0.3,0.2 0.5,0.5 0.5,0.9l0,10c0,0.4 -0.2,0.7 -0.5,0.9c-0.1,0.1 -0.3,0.1 -0.5,0.1zm-8,-6.6l7,3.9l0,-7.7l-7,-3.9l0,7.7z"/>
  <path fill="#ffffff" id="svg_8" d="m23.718311,47.563379c-0.2,0 -0.4,0 -0.5,-0.1c-0.3,-0.2 -0.5,-0.5 -0.5,-0.9l0,-10c0,-0.4 0.2,-0.7 0.5,-0.9l9,-5c0.3,-0.2 0.7,-0.2 1,0c0.3,0.2 0.5,0.5 0.5,0.9l0,10c0,0.4 -0.2,0.7 -0.5,0.9l-9,5c-0.2,0.1 -0.3,0.1 -0.5,0.1zm1,-10.4l0,7.7l7,-3.9l0,-7.7l-7,3.9z"/>
  <path fill="#ffffff" id="svg_9" d="m24,37c-0.2,0 -0.3,0 -0.5,-0.1l-9,-5c-0.3,-0.2 -0.5,-0.5 -0.5,-0.9s0.2,-0.7 0.5,-0.9l9,-5c0.3,-0.2 0.7,-0.2 1,0l9,5c0.3,0.2 0.5,0.5 0.5,0.9s-0.2,0.7 -0.5,0.9l-9,5c-0.2,0.1 -0.3,0.1 -0.5,0.1zm-6.9,-6l6.9,3.9l6.9,-3.9l-6.9,-3.9l-6.9,3.9z"/>
  <rect fill="#ffffff" id="svg_10" height="2" width="11" y="1" x="19"/>
  <path fill="#ffffff" id="svg_11" d="m12,39l-10,0c-0.6,0 -1,-0.4 -1,-1l0,-17l2,0l0,16l9,0l0,2z"/>
  <path fill="#ffffff" id="svg_12" d="m46,39l-10,0l0,-2l9,0l0,-16l2,0l0,17c0,0.6 -0.4,1 -1,1z"/>
  <text id="svg_14" font-family="'Helvetica Neue', Helvetica, Arial-Unicode, Arial, Sans-serif" font-weight="bold" font-size="5px" fill="#000000" y="68" x="0">from the Noun Project</text>
 </g>
</svg>