<svg width="100" height="100" xmlns="http://www.w3.org/2000/svg">

 <g>
  <title>background</title>
  <rect fill="none" id="canvas_background" height="102" width="102" y="-1" x="-1"/>
 </g>
 <g>
  <title>Layer 1</title>
  <g stroke="null" id="svg_1">
   <g stroke="null" id="svg_2">
    <path fill="#ffffff" stroke="null" id="svg_3" d="m80.909396,18.468504l-62.348504,23.681542c-1.186156,0.450567 -1.229237,2.059173 -0.068903,2.56851l13.783494,6.05104c0.373324,0.164082 0.656816,0.473839 0.779672,0.852226l5.913657,18.206498c0.298727,0.919147 1.447632,1.275709 2.243069,0.695901l10.293384,-7.5024c0.491559,-0.358271 1.163868,-0.3751 1.674046,-0.042204l17.263547,11.267208c0.861214,0.561927 2.03541,0.085196 2.224179,-0.902844l10.187122,-53.323669c0.205607,-1.07626 -0.891669,-1.951757 -1.944763,-1.551808zm-37.781562,34.883407l-1.85996,10.229076l-4.801282,-14.646135l32.916922,-19.765143l-26.255679,24.182202z"/>
    <path fill="#ffffff" stroke="null" id="svg_4" d="m27.05535,56.023235c-0.530848,-0.513544 -1.390839,-0.513544 -1.92181,0l-7.614612,7.365928c-0.530835,0.513676 -0.530835,1.345654 0,1.859198c0.530835,0.513544 1.390825,0.513544 1.92181,0l7.614612,-7.36606c0.530821,-0.513544 0.530821,-1.345523 0,-1.859067z"/>
    <path fill="#ffffff" stroke="null" id="svg_5" d="m30.96321,72.019889l-7.613919,7.365928c-0.530984,0.513544 -0.530984,1.345654 0,1.859198c0.530821,0.513544 1.390812,0.513544 1.92166,0l7.614055,-7.36606c0.530835,-0.513544 0.530835,-1.345523 0,-1.859067c-0.530971,-0.513544 -1.390961,-0.513544 -1.921796,0z"/>
    <path fill="#ffffff" stroke="null" id="svg_6" d="m53.109051,72.019889l-7.614612,7.365928c-0.530971,0.513544 -0.530971,1.345654 0,1.859198c0.530835,0.513544 1.390825,0.513544 1.92166,0l7.614761,-7.36606c0.530821,-0.513544 0.530821,-1.345523 0,-1.859067c-0.530984,-0.513544 -1.390975,-0.513544 -1.92181,0z"/>
   </g>
   <g stroke="null" id="svg_7">
    <path fill="#ffffff" stroke="null" id="svg_8" d="m80.909396,18.468504l-62.348504,23.681542c-1.186156,0.450567 -1.229237,2.059173 -0.068903,2.56851l13.783494,6.05104c0.373324,0.164082 0.656816,0.473839 0.779672,0.852226l5.913657,18.206498c0.298727,0.919147 1.447632,1.275709 2.243069,0.695901l10.293384,-7.5024c0.491559,-0.358271 1.163868,-0.3751 1.674046,-0.042204l17.263547,11.267208c0.861214,0.561927 2.03541,0.085196 2.224179,-0.902844l10.187122,-53.323669c0.205607,-1.07626 -0.891669,-1.951757 -1.944763,-1.551808zm-37.781562,34.883407l-1.85996,10.229076l-4.801282,-14.646135l32.916922,-19.765143l-26.255679,24.182202z"/>
    <path fill="#ffffff" stroke="null" id="svg_9" d="m27.05535,56.023235c-0.530848,-0.513544 -1.390839,-0.513544 -1.92181,0l-7.614612,7.365928c-0.530835,0.513676 -0.530835,1.345654 0,1.859198c0.530835,0.513544 1.390825,0.513544 1.92181,0l7.614612,-7.36606c0.530821,-0.513544 0.530821,-1.345523 0,-1.859067z"/>
    <path fill="#ffffff" stroke="null" id="svg_10" d="m30.96321,72.019889l-7.613919,7.365928c-0.530984,0.513544 -0.530984,1.345654 0,1.859198c0.530821,0.513544 1.390812,0.513544 1.92166,0l7.614055,-7.36606c0.530835,-0.513544 0.530835,-1.345523 0,-1.859067c-0.530971,-0.513544 -1.390961,-0.513544 -1.921796,0z"/>
    <path fill="#ffffff" stroke="null" id="svg_11" d="m53.109051,72.019889l-7.614612,7.365928c-0.530971,0.513544 -0.530971,1.345654 0,1.859198c0.530835,0.513544 1.390825,0.513544 1.92166,0l7.614761,-7.36606c0.530821,-0.513544 0.530821,-1.345523 0,-1.859067c-0.530984,-0.513544 -1.390975,-0.513544 -1.92181,0z"/>
   </g>
  </g>
 </g>
</svg>